HIERARCHY
ROOT Hips
{
  OFFSET -35.4901 99.2528 17.4586
  CHANNELS 6 Xposition Yposition Zposition Zrotation Xrotation Yrotation
  JOINT LeftUpLeg
  {
    OFFSET 8.64259 1.95398 -2.38835
    CHANNELS 3 Zrotation Xrotation Yrotation
    JOINT LeftLeg
    {
      OFFSET 43.7702 0 0
      CHANNELS 3 Zrotation Xrotation Yrotation
      JOINT LeftFoot
      {
        OFFSET 40.6238 0 0
        CHANNELS 3 Zrotation Xrotation Yrotation
        JOINT LeftToeBase
        {
          OFFSET 12.7242 0 0
          CHANNELS 3 Zrotation Xrotation Yrotation
          End Site
          {
            OFFSET 0 0 0
          }
        }
      }
    }
  }
  JOINT RightUpLeg
  {
    OFFSET -8.2249 1.95398 -2.59336
    CHANNELS 3 Zrotation Xrotation Yrotation
    JOINT RightLeg
    {
      OFFSET 43.5653 0 0
      CHANNELS 3 Zrotation Xrotation Yrotation
      JOINT RightFoot
      {
        OFFSET 40.6238 0 0
        CHANNELS 3 Zrotation Xrotation Yrotation
        JOINT RightToeBase
        {
          OFFSET 12.7242 0 0
          CHANNELS 3 Zrotation Xrotation Yrotation
          End Site
          {
            OFFSET 0 0 0
          }
        }
      }
    }
  }
  JOINT Spine
  {
    OFFSET 0.165834 0.87714 6.61349
    CHANNELS 3 Zrotation Xrotation Yrotation
    JOINT Spine1
    {
      OFFSET 7.38963 1.71661e-005 0
      CHANNELS 3 Zrotation Xrotation Yrotation
      JOINT Spine2
      {
        OFFSET 11.9445 1.14441e-005 0
        CHANNELS 3 Zrotation Xrotation Yrotation
        JOINT Spine3
        {
          OFFSET 14.7254 4.19617e-005 0
          CHANNELS 3 Zrotation Xrotation Yrotation
          JOINT Spine4
          {
            OFFSET 10.9679 0 0
            CHANNELS 3 Zrotation Xrotation Yrotation
            JOINT RightShoulder
            {
              OFFSET 2.46616 -1.6653 3.69651
              CHANNELS 3 Zrotation Xrotation Yrotation
              JOINT RightArm
              {
                OFFSET 13.0012 0 0
                CHANNELS 3 Zrotation Xrotation Yrotation
                JOINT RightForeArm
                {
                  OFFSET 28.7848 1.52588e-005 0
                  CHANNELS 3 Zrotation Xrotation Yrotation
                  JOINT RightHand
                  {
                    OFFSET 26.5688 1.52588e-005 0
                    CHANNELS 3 Zrotation Xrotation Yrotation
                    End Site
                    {
                      OFFSET 0 0 0
                    }
                  }
                }
              }
            }
            JOINT LeftShoulder
            {
              OFFSET 2.38034 -1.29275 -3.7523
              CHANNELS 3 Zrotation Xrotation Yrotation
              JOINT LeftArm
              {
                OFFSET 16.3182 6.10351e-005 0
                CHANNELS 3 Zrotation Xrotation Yrotation
                JOINT LeftForeArm
                {
                  OFFSET 27.0901 0 0
                  CHANNELS 3 Zrotation Xrotation Yrotation
                  JOINT LeftHand
                  {
                    OFFSET 24.5451 1.52588e-005 0
                    CHANNELS 3 Zrotation Xrotation Yrotation
                    End Site
                    {
                      OFFSET 0 0 0
                    }
                  }
                }
              }
            }
            JOINT Neck
            {
              OFFSET 5.0226 -0.0266342 0
              CHANNELS 3 Zrotation Xrotation Yrotation
              JOINT Head
              {
                OFFSET 6.69364 2.86102e-005 0
                CHANNELS 3 Zrotation Xrotation Yrotation
                End Site
                {
                  OFFSET 0 0 0
                }
              }
            }
          }
        }
      }
    }
  }
}
MOTION
Frames:	12
Frame Time:	0.0416667
23.8138 95.522 -76.8879 78.2341 -88.5529 84.7821 -178.302 28.5067 88.4197 -14.9324 9.29113 -1.71391 60.4212 1.46177 0.632635 20.9325 1.77634 -1.97188 166.4 -20.8089 78.6878 -34.5426 -29.6695 -6.40999 61.7677 -1.05303 -0.507918 25.7026 -2.00099 5.40668 2.69903 7.44698 -90.2622 12.0112 5.24268 -1.0919 0.350205 5.18954 -1.32218 -22.2698 5.32771 0.538776 -2.25711 5.32771 0.538772 91.1973 -21.4628 -107.782 30.9068 -0.928417 -14.2774 -31.5118 1.95596 -102.455 -33.0247 3.5888 -20.7418 -84.4884 -35.0942 84.9029 -40.4923 32.5579 52.7437 51.089 -27.4011 -89.5775 3.91512 -0.977231 -20.4074 22.1049 -15.2869 -9.12357 -12.1891 -11.7825 -0.254174 
25.225 94.8287 -68.468 125.385 -88.4132 134.91 -177.441 28.427 90.8941 -17.9386 7.65186 -2.08743 60.1479 1.07625 1.39915 14.6845 -0.0646875 1.17398 168.568 -21.5957 81.3204 -40.5737 -19.9635 -5.37259 65.5048 -2.71987 0.889217 26.0012 -1.41271 3.93039 2.31808 7.46183 -91.0694 11.9987 4.10449 -2.57928 0.331351 3.98704 -2.75754 -22.2497 4.68955 -1.22456 -2.23703 4.68956 -1.22458 90.6308 -17.4725 -111.156 34.5436 -7.86993 -11.4755 -28.6113 2.26168 -98.7833 -32.1737 3.72891 -21.0564 -82.4 -44.1109 89.6368 -35.2284 29.133 49.434 53.4813 -26.2676 -89.8404 4.09421 -0.950375 -19.5027 23.5371 -10.5513 -2.42592 -14.4304 -9.08866 -2.51 
26.7727 93.5942 -60.1929 139.772 -87.8099 150.388 -174.925 30.8925 91.1615 -30.5141 6.89664 -4.30342 58.427 -0.611471 7.72755 15.6917 6.50925 -7.41861 170.473 -18.4393 82.6239 -51.8448 -10.9577 -5.00023 70.3472 -5.29998 -1.63629 21.2705 -1.29407 3.8069 2.36261 7.49965 -90.7681 11.9164 4.33623 -1.99904 0.250809 4.24406 -2.18818 -22.3404 4.73614 -0.600871 -2.32773 4.73615 -0.600878 89.7075 -25.7295 -109.072 33.926 -11.9494 -8.70115 -29.2976 1.40679 -95.2635 -30.0967 3.8248 -22.7176 -84.0709 -40.3979 86.4325 -34.1685 22.8119 42.0166 55.5186 -23.0762 -89.8899 6.12269 -1.16297 -18.723 22.8692 -12.1752 -9.89485 -13.1964 -8.58841 1.48838 
28.348 92.0671 -52.4386 133.524 -87.1709 142.588 -171.48 32.7176 88.2398 -46.622 8.70083 -5.86993 70.9635 5.28511 7.6878 7.80023 6.35866 -5.91604 172.877 -11.2708 82.3531 -67.0611 -2.22728 -4.90148 75.2521 -8.28452 -4.15082 12.5866 -2.15981 5.72381 1.91209 7.58847 -90.4851 11.723 3.57537 -1.34366 0.056166 3.51277 -1.49987 -22.5183 3.81368 -0.205534 -2.50563 3.81368 -0.205532 88.8251 -28.6325 -109.668 35.2491 -14.6364 -4.52812 -33.5025 -0.113722 -89.7311 -28.5652 3.18296 -21.9227 -84.1079 -44.085 86.8654 -28.871 16.5681 33.3295 58.2193 -21.8027 -91.3953 5.76966 -1.10828 -18.5836 21.9356 -10.4553 -12.6108 -11.8041 -6.19567 2.78405 
30.1395 90.0404 -45.2891 128.915 -85.0939 132.484 -169.514 28.2457 82.1373 -52.6186 8.35768 -6.62329 77.8222 8.88084 5.74215 11.2697 5.32981 -5.26365 175.899 -3.64803 78.7556 -83.4814 3.23004 -4.75962 82.1779 -11.8259 -4.44869 8.95874 -1.85571 5.20356 1.25415 8.02511 -89.7524 10.8252 2.61171 0.253945 -0.843035 2.62035 0.138669 -23.3968 2.41455 1.02757 -3.38418 2.41454 1.02755 87.8336 -31.9902 -110.168 36.1137 -14.7699 -0.29649 -33.1354 -3.39564 -85.4977 -30.0875 2.70259 -19.1161 -83.7806 -48.1799 87.8759 -22.6869 12.0659 18.5189 57.2813 -20.308 -93.1974 2.97094 -0.770508 -18.9293 24.604 -8.2877 -13.5326 -11.7743 -3.32545 1.67073 
32.0785 88.3019 -38.5307 122.403 -83.8082 122.22 -168.504 23.4453 78.4408 -55.5122 10.1035 -8.21789 82.9727 11.7912 7.34814 14.7304 7.82756 -9.02695 -177.145 5.39269 76.4783 -97.1663 1.1915 -3.65694 86.7485 -14.2948 -4.45855 9.00884 -1.95726 5.37134 0.672267 8.24736 -89.1624 10.3658 1.72283 1.51382 -1.30485 1.78778 1.43653 -23.8379 1.18831 1.96152 -3.82528 1.18831 1.96153 87.5111 -33.0692 -110.328 39.9382 -11.382 6.57161 -34.2664 -4.10676 -84.3537 -28.3798 2.76942 -20.7027 -83.6691 -48.4415 88.0804 -19.3686 9.05734 2.23549 53.4277 -18.86 -95.002 2.8317 -0.754756 -18.9076 27.2526 -6.02162 -14.8843 -12.8165 -0.353225 2.40492 
33.7635 87.4775 -31.7582 109.208 -84.1081 109.654 -168.361 20.3883 79.3813 -57.8674 10.1517 -8.82954 89.6554 13.909 3.19824 10.3572 6.52876 -6.44495 -168.146 16.7409 77.5526 -105.346 -1.03748 -2.35069 88.3934 -15.0815 -3.30376 8.51355 -2.51358 6.3265 0.288919 8.16708 -89.1257 10.5307 0.977124 1.65126 -1.14089 1.04885 1.60666 -23.6686 0.435771 1.86851 -3.65595 0.435774 1.8685 88.6817 -31.8595 -108.599 44.7865 -9.90545 14.9489 -32.5158 -2.47542 -84.6168 -28.3742 2.99619 -21.2759 -83.8627 -47.4736 87.6712 -17.6117 5.02039 -12.4974 52.468 -18.6472 -96.8695 1.37114 -0.635592 -20.8294 26.8766 -2.46847 -15.1441 -11.6965 3.00377 3.82909 
35.3231 87.1985 -24.54 90.3502 -81.3446 93.8041 -168.732 16.4126 82.793 -57.5252 12.0768 -8.00462 92.8768 14.8971 1.59395 14.4689 7.31659 -8.31771 -164.914 28.2391 80.509 -107.222 1.89279 -1.81829 90.224 -15.832 -2.82005 10.0406 -2.24549 5.86623 -0.43094 8.00197 -89.3977 10.8707 -0.579498 1.25416 -0.800841 -0.523732 1.27844 -23.3328 -0.9296 1.02205 -3.32014 -0.929592 1.02205 90.0887 -31.2582 -106.115 47.0864 -10.4442 22.7386 -32.6288 -0.522396 -85.5714 -26.354 3.12768 -23.0813 -84.0257 -45.3933 87.1684 -14.8421 1.02245 -24.7244 49.4798 -18.5712 -99.0998 3.24233 -0.929654 -21.4422 26.8959 0.608142 -16.7505 -13.5804 6.25761 6.38121 
37.6554 88.2869 -16.7528 87.6902 -75.8621 93.7352 -170.338 9.8863 86.0153 -54.06 15.7763 -5.93286 90.1667 14.102 2.7055 19.5449 8.16364 -10.6696 -166.354 35.3828 82.8258 -102.059 6.74846 -2.2408 92.7734 -16.1223 -0.555687 11.019 -1.52801 4.59818 -1.42255 8.02184 -89.7465 10.8407 -2.7153 0.758375 -0.827678 -2.67931 0.877208 -23.3856 -2.81759 -0.0934001 -3.37296 -2.81759 -0.0933982 90.3208 -30.8932 -105.794 47.0408 -9.81153 31.0262 -35.8194 -0.482751 -87.3989 -26.9172 3.14735 -23.2613 -84.8439 -40.3136 85.0983 -13.3191 -2.71429 -30.7909 44.5344 -18.3493 -101.792 3.31261 -0.933985 -20.9937 26.5405 4.21726 -18.139 -14.5581 9.87064 8.73352 
40.6422 90.1723 -8.32258 87.9542 -70.3244 96.2879 -171.828 1.81208 89.2431 -47.2644 19.0707 -3.1126 81.5039 10.7331 5.78453 32.2493 10.3571 -18.8589 -169.104 38.4677 85.7087 -92.0438 7.58649 -3.14953 92.2024 -15.9342 -1.96509 11.5771 -1.62117 4.75437 -2.33688 8.23995 -90.2787 10.3979 -4.783 -0.13482 -1.26419 -4.78429 0.0763028 -23.8645 -4.5209 -1.56904 -3.85182 -4.52089 -1.56904 91.5394 -28.274 -104.295 46.7448 -8.87235 36.8949 -37.7741 1.02154 -86.3187 -25.9578 3.30221 -25.0754 -85.2053 -34.3436 83.4258 -15.4525 -6.12485 -33.9205 45.8266 -19.4125 -103.527 7.3512 -1.08327 -16.0014 28.5855 7.43376 -17.4831 -16.2221 12.5154 11.5533 
44.084 92.4989 0.553904 87.2273 -66.7048 98.4486 -171.991 -6.88023 93.2874 -36.885 23.3954 -0.182212 69.3679 4.98009 7.30731 42.1592 8.87095 -21.1091 -171.991 39.444 89.2842 -78.2417 7.60648 -4.03896 88.5503 -13.7247 -1.25215 10.2268 -0.917221 3.54698 -2.94001 8.43335 -90.9451 9.97722 -6.28879 -1.35865 -1.67885 -6.34248 -1.07948 -24.3103 -5.589 -3.191 -4.29764 -5.589 -3.191 92.2081 -26.0291 -103.704 45.085 -7.60792 41.5992 -39.226 1.09388 -86.6747 -26.019 3.56355 -26.603 -85.2343 -30.5579 82.5864 -15.7774 -7.85659 -35.1585 38.95 -17.9886 -106.03 6.19964 -1.27285 -20.0177 31.8735 10.1628 -15.3493 -19.6129 13.9826 14.0497 
47.7329 94.295 9.52878 83.2488 -65.672 97.5384 -171.264 -12.4328 96.6179 -28.9635 25.4664 1.76637 59.0851 -0.189718 5.83688 33.6152 7.89381 -15.5331 -173.202 39.4389 91.8295 -62.0039 1.32634 -4.84895 84.591 -12.2067 -1.29712 13.9801 -0.666434 2.88691 -3.07497 8.35801 -91.6327 10.0823 -6.87102 -2.66696 -1.57253 -6.98169 -2.36079 -24.1957 -5.75181 -4.61275 -4.18309 -5.75181 -4.61275 92.6036 -23.2502 -103.884 44.368 -5.74515 46.7021 -39.2873 0.964111 -86.7703 -27.2688 3.96092 -27.3398 -86.1908 -27.8036 80.0892 -13.204 -9.54142 -34.5078 35.2101 -17.297 -107.601 6.75876 -1.34931 -20.0355 33.0616 12.5545 -12.2701 -22.415 14.5142 15.4574 
